<svg xmlns="http://www.w3.org/2000/svg" width="2480" zoomAndPan="magnify" viewBox="0 0 1860 221.999995" height="296"
     preserveAspectRatio="xMidYMid meet" version="1.0"><defs><g/></defs><rect x="-186" width="2232" fill="#ffffff" y="-22.2" height="266.399994" fill-opacity="1"/><rect x="-186" width="2232" fill="#d9d9d9" y="-22.2" height="266.399994" fill-opacity="1"/><path fill="#4770dc" d="M 113.464844 51.097656 C 146.714844 51.394531 173.582031 78.4375 173.582031 111.761719 C 173.582031 122.546875 170.765625 132.679688 165.832031 141.453125 C 155.757812 159.363281 136.859375 171.644531 115.035156 172.390625 C 114.792969 172.402344 114.550781 172.40625 114.308594 172.410156 C 114.148438 172.410156 113.992188 172.414062 113.835938 172.417969 C 113.53125 172.421875 113.222656 172.429688 112.914062 172.429688 C 100.144531 172.429688 89.699219 161.980469 89.699219 149.210938 C 89.699219 143.277344 91.953125 137.84375 95.652344 133.730469 C 95.933594 133.417969 96.21875 133.113281 96.515625 132.816406 C 100.726562 128.605469 106.53125 125.992188 112.914062 125.992188 C 133.59375 125.992188 150.363281 109.230469 150.363281 88.546875 C 150.363281 68.046875 133.890625 51.394531 113.464844 51.097656 Z M 113.464844 51.097656 " fill-opacity="1" fill-rule="nonzero"/><path fill="#6f94f4" d="M 136.128906 27.878906 C 169.632812 27.878906 196.796875 55.039062 196.796875 88.542969 C 196.796875 88.847656 196.792969 89.15625 196.785156 89.464844 C 196.785156 89.621094 196.78125 89.777344 196.777344 89.9375 C 196.773438 90.179688 196.765625 90.421875 196.761719 90.664062 C 195.65625 135.308594 159.675781 171.285156 115.035156 172.390625 C 136.859375 171.644531 155.757812 159.363281 165.828125 141.453125 C 170.765625 132.679688 173.578125 122.546875 173.578125 111.761719 C 173.578125 78.4375 146.710938 51.394531 113.460938 51.097656 C 113.277344 51.097656 113.09375 51.097656 112.910156 51.097656 C 112.589844 51.097656 112.269531 51.097656 111.941406 51.109375 C 92.027344 51.613281 75.976562 67.667969 75.472656 87.578125 C 75.632812 77.148438 78.425781 67.363281 83.214844 58.847656 C 93.613281 40.363281 113.414062 27.878906 136.128906 27.878906 Z M 136.128906 27.878906 " fill-opacity="1" fill-rule="nonzero"/><path fill="#97b4ff" d="M 112.914062 4.65625 C 159.242188 4.65625 196.796875 42.214844 196.796875 88.542969 C 196.796875 55.035156 169.632812 27.878906 136.132812 27.878906 C 113.414062 27.878906 93.613281 40.363281 83.21875 58.847656 C 78.429688 67.363281 75.636719 77.148438 75.476562 87.578125 C 75.46875 87.898438 75.464844 88.21875 75.464844 88.546875 L 75.464844 196.960938 C 75.464844 209.730469 65.015625 220.179688 52.246094 220.179688 C 39.476562 220.179688 29.03125 209.730469 29.03125 196.960938 L 29.03125 88.542969 C 29.03125 55.671875 47.933594 27.21875 75.46875 13.460938 C 86.734375 7.828125 99.457031 4.65625 112.914062 4.65625 Z M 112.914062 4.65625 " fill-opacity="1" fill-rule="nonzero"/><g fill="#0068b7" fill-opacity="1"><g transform="translate(268.781416, 116.801318)"><g><path d="M 83.078125 -83.3125 L 79.296875 -69.28125 L 105.875 -70.875 L 111.859375 -64.28125 L 105.15625 -16.828125 L 93.6875 -18.421875 L 99.546875 -58.921875 L 59.53125 -56.71875 L 62.21875 -27.453125 L 50.75 -26.34375 L 47.578125 -61.609375 L 53.0625 -67.828125 L 67.09375 -68.5625 L 71 -82.09375 L 51.234375 -80.265625 L 50.140625 -91.734375 L 105.765625 -96.984375 L 106.859375 -85.515625 Z M 12.4375 -3.046875 L 10 -14.265625 L 20.609375 -16.46875 L 22.203125 -69.40625 L 10 -70.140625 L 10.609375 -81.484375 L 45.375 -79.53125 L 44.765625 -68.0625 L 33.671875 -68.671875 L 32.328125 -18.90625 L 44.53125 -21.46875 L 46.71875 -10.125 Z M 54.65625 8.90625 L 44.890625 3.046875 L 79.296875 -54.28125 L 89.171875 -48.421875 Z M 101 9.15625 L 73.921875 -17.6875 L 82.09375 -25.734375 L 109.171875 1.21875 Z M 101 9.15625 "/></g></g></g><g fill="#0068b7" fill-opacity="1"><g transform="translate(418.197231, 116.801318)"><g><path d="M 109.421875 -25 L 86.359375 -25.125 L 88.6875 -4.875 L 84.40625 1.21875 L 61.484375 7.078125 L 58.546875 -3.90625 L 76.609375 -8.53125 L 74.78125 -25.25 L 12.6875 -25.609375 L 12.6875 -37.203125 L 73.4375 -36.84375 L 72.703125 -43.296875 L 25.25 -44.15625 L 19.515625 -50.25 L 21.71875 -88.078125 L 27.328125 -93.3125 L 93.6875 -94.90625 L 99.296875 -87.828125 L 94.78125 -67.578125 L 89.296875 -63.1875 L 38.90625 -61.609375 L 38.671875 -73.0625 L 84.53125 -74.40625 L 86.484375 -83.1875 L 32.8125 -82.09375 L 31.34375 -55.5 L 96.125 -54.53125 L 97.59375 -62.828125 L 108.9375 -60.75 L 106.5 -47.453125 L 100.640625 -42.9375 L 84.296875 -43.1875 L 85.015625 -36.71875 L 109.421875 -36.59375 Z M 41.71875 5.25 L 22.8125 -17.078125 L 31.46875 -24.640625 L 50.375 -2.078125 Z M 41.71875 5.25 "/></g></g></g><g fill="#0068b7" fill-opacity="1"><g transform="translate(567.613047, 116.801318)"><g><path d="M 70.140625 -74.28125 L 64.28125 -14.765625 L 108.5625 -18.78125 L 109.65625 -7.3125 L 13.421875 1.578125 L 12.328125 -10 L 52.453125 -13.65625 L 58.546875 -75.265625 L 24.28125 -77.953125 L 25.125 -89.421875 L 96.859375 -83.796875 L 95.875 -72.34375 Z M 70.140625 -74.28125 "/></g></g></g><g fill="#0068b7" fill-opacity="1"><g transform="translate(717.028885, 116.801318)"><g><path d="M 73.5625 -41.71875 L 72.21875 -21.109375 L 111.734375 -24.890625 L 112.828125 -13.546875 L 71.484375 -9.515625 L 71.359375 -9.875 L 70.265625 7.203125 L 58.671875 6.46875 L 63.796875 -66.109375 L 51.84375 -52.09375 L 42.9375 -59.40625 L 73.1875 -94.90625 L 81.859375 -87.46875 L 77.828125 -82.828125 L 112.109375 -81.234375 L 111.609375 -69.78125 L 75.625 -71.359375 L 74.40625 -53.1875 L 108.6875 -52.8125 L 108.4375 -41.234375 Z M 9.265625 -62.578125 L 39.28125 -93.078125 L 47.578125 -85.015625 L 37.9375 -75.265625 L 42.203125 6.34375 L 30.625 6.953125 L 26.953125 -64.28125 L 17.328125 -54.53125 Z M 9.265625 -62.578125 "/></g></g></g><g fill="#0068b7" fill-opacity="1"><g transform="translate(866.444678, 116.801318)"><g><path d="M 81.96875 -37.6875 L 66.96875 -35.984375 L 66.96875 -27.453125 L 95.03125 -29.15625 L 95.765625 -17.5625 L 66.96875 -15.984375 L 66.96875 -5.734375 L 106.734375 -3.90625 L 106.375 7.4375 L 13.65625 3.171875 L 14.03125 -8.171875 L 55.375 -6.21875 L 55.375 -15.25 L 22.328125 -13.421875 L 21.59375 -24.890625 L 55.375 -26.84375 L 55.375 -34.640625 L 34.515625 -32.328125 L 29.03125 -40.984375 L 38.296875 -56.84375 L 27.203125 -56.59375 L 26.84375 -67.953125 L 92.703125 -70.140625 L 93.078125 -58.546875 L 51.84375 -57.328125 L 44.765625 -45.140625 L 77.953125 -48.796875 L 76.234375 -53.546875 L 87.09375 -57.328125 L 94.53125 -36.46875 L 83.796875 -32.5625 Z M 96.734375 -55.984375 L 98.5625 -75.015625 L 23.171875 -72.21875 L 23.421875 -58.4375 L 11.953125 -58.1875 L 11.46875 -77.703125 L 17.078125 -83.5625 L 50.75 -84.78125 L 48.1875 -90.265625 L 58.796875 -95.140625 L 63.3125 -85.140625 L 104.65625 -86.734375 L 110.640625 -80.515625 L 108.203125 -54.890625 Z M 96.734375 -55.984375 "/></g></g></g><g fill="#0068b7" fill-opacity="1"><g transform="translate(294.299636, 201.452757)"><g><path d="M 6.71875 1 L 1.1875 0.65625 L 3.828125 -40.890625 L 6.671875 -43.421875 L 35.75 -43.421875 L 38.59375 -40.953125 L 40.65625 -20.234375 L 38 -17.109375 L 11.15625 -15.40625 L 10.796875 -20.9375 L 34.8125 -22.484375 L 33.28125 -37.9375 L 9.203125 -37.9375 Z M 6.71875 1 "/></g></g></g><g fill="#0068b7" fill-opacity="1"><g transform="translate(358.721612, 201.452757)"><g><path d="M 4.125 0.359375 L 1.1875 -2.59375 L 3.890625 -40.171875 L 6.84375 -42.78125 L 38.875 -40.65625 L 38.53125 -35.109375 L 9.328125 -37 L 7.015625 -5.3125 L 35.109375 -6.71875 L 34.109375 -17.40625 L 17.640625 -18.109375 L 17.875 -23.71875 L 36.75 -22.828125 L 39.40625 -20.359375 L 40.953125 -4.359375 L 38.34375 -1.296875 Z M 4.125 0.359375 "/></g></g></g><g fill="#0068b7" fill-opacity="1"><g transform="translate(423.438547, 201.452757)"><g><path d="M 29.4375 -1.53125 L 23.0625 -5.3125 L 4.421875 -2.234375 L 1.1875 -5.140625 L 2.59375 -28.96875 L 8.140625 -28.671875 L 6.96875 -8.3125 L 21.765625 -10.671875 L 23.015625 -29.03125 L 28.609375 -28.5625 L 27.3125 -9.265625 L 32.328125 -6.25 Z M 29.4375 -1.53125 "/></g></g></g><g fill="#0068b7" fill-opacity="1"><g transform="translate(476.652025, 201.452757)"><g><path d="M 4.421875 -27.96875 L 2.65625 -34.578125 L 8.03125 -36.046875 L 9.796875 -29.4375 Z M 6.71875 -0.46875 L 1.1875 -1.125 L 4.078125 -24.546875 L 9.609375 -23.890625 Z M 6.71875 -0.46875 "/></g></g></g><g fill="#0068b7" fill-opacity="1"><g transform="translate(510.221115, 201.452757)"><g><path d="M 9.03125 -20.46875 L 7.140625 -6.4375 L 25.421875 -8.375 L 24.78125 -17.9375 Z M 4.1875 -0.53125 L 1.1875 -3.65625 L 3.890625 -24.015625 L 7.078125 -26.375 L 24.421875 -23.59375 L 23.484375 -36.8125 L 29.09375 -37.171875 L 31.15625 -6.140625 L 28.671875 -3.1875 Z M 4.1875 -0.53125 "/></g></g></g><g fill="#0068b7" fill-opacity="1"><g transform="translate(565.145359, 201.452757)"><g><path d="M 26.25 0.703125 L 3.421875 -3.546875 L 1.1875 -6.671875 L 4.015625 -27.671875 L 6.484375 -30.03125 L 23.78125 -31.453125 L 26.484375 -29.96875 L 31.5 -20.0625 L 29.5625 -16.109375 L 11.203125 -12.265625 L 10.03125 -17.640625 L 24.84375 -20.828125 L 22.359375 -25.71875 L 9.140625 -24.71875 L 7.015625 -8.5 L 27.3125 -4.71875 Z M 26.25 0.703125 "/></g></g></g><g fill="#0068b7" fill-opacity="1"><g transform="translate(618.653786, 201.452757)"><g/></g></g><g fill="#0068b7" fill-opacity="1"><g transform="translate(670.746396, 201.452757)"><g><path d="M 1.71875 0 L 1.1875 -5.484375 L 34.15625 -8.375 L 31.5 -20.359375 L 5.953125 -17.40625 L 2.890625 -20.234375 L 3.71875 -39.890625 L 6.71875 -42.53125 L 37.8125 -39.640625 L 37.34375 -34.109375 L 9.140625 -36.703125 L 8.5625 -23.3125 L 33.328125 -26.078125 L 36.34375 -23.953125 L 40.296875 -6.484375 L 37.765625 -3.0625 Z M 1.71875 0 "/></g></g></g><g fill="#0068b7" fill-opacity="1"><g transform="translate(734.814424, 201.452757)"><g><path d="M 18.9375 -21.765625 L 17.578125 -7.25 L 29.140625 -3.953125 L 27.671875 1.359375 L 13.8125 -2.53125 L 11.796875 -5.484375 L 13.28125 -21.359375 L 1.65625 -20.53125 L 1.1875 -26.140625 L 13.8125 -27.015625 L 14.390625 -33.21875 L 19.9375 -32.6875 L 19.46875 -27.375 L 32.75 -28.3125 L 33.09375 -22.828125 Z M 18.9375 -21.765625 "/></g></g></g><g fill="#0068b7" fill-opacity="1"><g transform="translate(791.685422, 201.452757)"><g><path d="M 29.4375 -1.53125 L 23.0625 -5.3125 L 4.421875 -2.234375 L 1.1875 -5.140625 L 2.59375 -28.96875 L 8.140625 -28.671875 L 6.96875 -8.3125 L 21.765625 -10.671875 L 23.015625 -29.03125 L 28.609375 -28.5625 L 27.3125 -9.265625 L 32.328125 -6.25 Z M 29.4375 -1.53125 "/></g></g></g><g fill="#0068b7" fill-opacity="1"><g transform="translate(844.898889, 201.452757)"><g><path d="M 9.03125 -20.46875 L 7.140625 -6.4375 L 25.421875 -8.375 L 24.78125 -17.9375 Z M 4.1875 -0.53125 L 1.1875 -3.65625 L 3.890625 -24.015625 L 7.078125 -26.375 L 24.421875 -23.59375 L 23.484375 -36.8125 L 29.09375 -37.171875 L 31.15625 -6.140625 L 28.671875 -3.1875 Z M 4.1875 -0.53125 "/></g></g></g><g fill="#0068b7" fill-opacity="1"><g transform="translate(899.823111, 201.452757)"><g><path d="M 4.421875 -27.96875 L 2.65625 -34.578125 L 8.03125 -36.046875 L 9.796875 -29.4375 Z M 6.71875 -0.46875 L 1.1875 -1.125 L 4.078125 -24.546875 L 9.609375 -23.890625 Z M 6.71875 -0.46875 "/></g></g></g><g fill="#0068b7" fill-opacity="1"><g transform="translate(933.3922, 201.452757)"><g><path d="M 6.96875 -8.5625 L 22.71875 -7.671875 L 22.296875 -24.125 L 7.96875 -23.546875 Z M 25.375 -1.953125 L 3.78125 -3.1875 L 1.1875 -6.1875 L 2.59375 -26.4375 L 5.25 -28.96875 L 24.84375 -29.796875 L 27.734375 -27.078125 L 28.3125 -4.78125 Z M 25.375 -1.953125 "/></g></g></g><g fill="#c8b3ee" fill-opacity="1"><g transform="translate(1077.945778, 155.467137)"><g><path d="M 85.75 6 L 84 -5.5 L 95.75 -7.25 L 102.25 -84.125 L 22.625 -82.875 L 27 2.875 L 15.125 3.5 L 10.375 -88.375 L 16.125 -94.625 L 108.625 -96 L 114.625 -89.625 L 107.125 -1.625 L 102.125 3.5 Z M 75.75 -34.5 L 90.375 -21 L 82.25 -12.375 L 70.375 -23.375 L 57.875 2.75 L 47.25 -2.25 L 61.375 -31.75 L 53.625 -39 L 42.75 -12.125 L 32 -16.5 L 44.375 -47.5 L 25.125 -65.5 L 33 -74.125 L 49.125 -59.125 L 56.625 -78 L 67.625 -73.625 L 58.25 -50.625 L 66.625 -42.875 L 84.75 -80.875 L 95.375 -75.625 Z M 75.75 -34.5 "/></g></g></g><g fill="#c8b3ee" fill-opacity="1"><g transform="translate(1231.063015, 155.467137)"><g><path d="M 92.25 -57.875 L 113.375 -46.375 L 107.75 -36.125 L 81.875 -50.25 L 50.375 -26.75 L 43.375 -36.125 L 70.5 -56.375 L 63.375 -60.375 L 69 -70.625 L 80.875 -64.125 L 95 -74.75 L 64.5 -78.125 L 51.875 -57.875 L 41.875 -64.125 L 64 -99.125 L 73.75 -92.875 L 71.5 -89.25 L 111.125 -84.75 L 114 -74.125 Z M 96.75 6.75 L 66.625 5.75 L 61 1.25 L 56.625 -20.125 L 61.625 -27.25 L 103.125 -32.875 L 109.75 -25.5 L 102.75 2.5 Z M 39.375 -20.125 L 14 -27.875 L 11.625 -37.875 L 29.25 -54.5 L 13.375 -61 L 11.125 -70.375 L 32.75 -95.125 L 41.625 -87.375 L 25.5 -68.75 L 42.25 -62 L 44 -52.375 L 27.125 -36.25 L 42.875 -31.375 Z M 19.875 9 L 14 -1 L 44 -18.5 L 49.875 -8.25 Z M 71.625 -5.625 L 92.375 -5 L 96.125 -20 L 69.375 -16.25 Z M 71.625 -5.625 "/></g></g></g><g fill="#c8b3ee" fill-opacity="1"><g transform="translate(1384.180253, 155.467137)"><g><path d="M 49.25 -82.625 L 72.25 -84.75 L 72.25 -97.5 L 84.125 -97.5 L 84.125 -85.75 L 113.5 -88.5 L 114.625 -76.875 L 84.125 -73.875 L 84.125 -61.5 L 106.5 -59.125 L 110.25 -49.5 L 87.375 -23 L 111.25 -3.125 L 103.75 6 L 79.75 -14 L 61.25 7.5 L 52.375 -0.125 L 70.75 -21.625 L 55.375 -34.5 L 63 -43.375 L 78.375 -30.5 L 94 -48.75 L 54.875 -52.875 L 56.25 -64.625 L 72.25 -62.875 L 72.25 -72.75 L 50.375 -70.75 Z M 36.75 -69.375 L 37.5 -53.875 L 44.75 -57.5 L 50 -47 L 38.125 -41 L 40 -4 L 35 2.125 L 15 5 L 13.375 -6.625 L 28 -8.875 L 26.625 -35.375 L 15.875 -30 L 10.625 -40.375 L 26 -48.125 L 24.875 -70 L 10.5 -70.75 L 11.125 -82.625 L 24.375 -81.875 L 23.75 -95 L 35.5 -95.625 L 36.125 -81.125 L 44.625 -80.75 L 44 -69 Z M 36.75 -69.375 "/></g></g></g><g fill="#c8b3ee" fill-opacity="1"><g transform="translate(1537.297498, 155.467137)"><g><path d="M 67 -60.25 L 66.75 8.75 L 54.875 8.625 L 55.125 -59.625 L 47.125 -59.125 L 26.5 6.625 L 15.25 3 L 34.625 -58.5 L 10.5 -57.25 L 9.875 -69.125 L 55.25 -71.375 L 55.375 -98.5 L 67.125 -98.5 L 67 -72 L 111.875 -74.375 L 112.5 -62.625 Z M 105.625 -4.375 L 77.375 -43.5 L 86.875 -50.375 L 115.25 -11.25 Z M 98.125 -73.75 L 83.625 -85.75 L 91.125 -94.75 L 105.625 -82.75 Z M 98.125 -73.75 "/></g></g></g><g fill="#c8b3ee" fill-opacity="1"><g transform="translate(1690.414721, 155.467137)"><g><path d="M 72 -85.375 L 77.375 -91.375 L 108.375 -94.5 L 114.875 -87.125 L 105.75 -52 L 116.125 -13.5 L 109.5 -6.125 L 88.375 -9.25 L 90.25 -21 L 102.375 -19.125 L 93.875 -50.375 L 93.875 -53.375 L 101.25 -82 L 83.875 -80.25 L 87 7 L 75.125 7.375 Z M 19.625 2.375 L 13 -30.75 L 18.625 -37.75 L 59.875 -39.25 L 65.875 -33.375 L 65.75 -4.875 L 60.875 0.875 L 26.5 7.125 Z M 8.875 -86.375 L 31.5 -87.5 L 29.375 -92.25 L 40.125 -97.25 L 44.25 -88.25 L 67.375 -89.5 L 68 -77.75 L 25.25 -75.375 L 36.25 -62.25 L 27.375 -54.625 L 15.125 -69 L 22.5 -75.25 L 9.5 -74.5 Z M 10.5 -53.625 L 42 -54.625 L 54.625 -74.25 L 64.625 -67.875 L 56.375 -55.125 L 67.5 -55.5 L 67.75 -43.875 L 10.875 -42 Z M 30.125 -5.5 L 54 -9.875 L 54.25 -27.25 L 25.875 -26.125 Z M 30.125 -5.5 "/></g></g></g></svg>
